<svg version="1" xmlns="http://www.w3.org/2000/svg" width="200" height="200" viewBox="0 0 150.000000 150.000000"><path d="M16.8 5.7c-.3.7-.3 12 .1 14.9.1.8 4.5 1.2 14.4 1.2 7.8 0 15.3.1 16.7.1l2.5.1-.1 26.4c-.1 17.7-.6 27.5-1.4 30-3.1 9.4-15.7 10.2-27.1 1.6-2.9-2.1-5.6-3.7-6-3.4-2 1.2-7.9 12.3-7.3 13.8.9 2.5 12.2 10.1 17.5 11.8 4.5 1.5 17.5 1.8 22.7.5 4.1-1.1 11-5.6 13.5-9 6.4-8.5 6.2-6.6 6.5-49.5L69.1 5h-26c-14.3 0-26.1.3-26.3.7zM84.1 38.5V72H133V61H97V44h32V33H97V16l12.3.1h18l5.7-.1V5H84.1v33.5zM74 112.5V146h17.4c21.6 0 26.5-1 32.2-6.5 4.7-4.5 6-8.7 4.9-16-.7-5.1-5.6-11-10-12.1l-2.5-.6 3.2-2.2c11.7-8 9.1-23.2-4.8-28-3-1-9.5-1.5-22.3-1.6L74 78.9v33.6zm35-21.2c5.5 2.8 5.9 9.8.6 13.2-2.1 1.4-13.6 2.3-21.3 1.6-.9-.1-1.3-2.4-1.3-8.1v-8h9.8c5.8 0 10.7.5 12.2 1.3zm1.5 27.1c1.8.8 3.8 2.4 4.4 3.5 1.1 1.9.7 7.3-.6 9.4-1.4 2.3-7.7 3.7-17.3 3.7H87v-18h10c6.4 0 11.3.5 13.5 1.4zM55.7 104.1c-2.4 1.4-4.5 6-4 8.9 1.3 8.6 10.9 10.9 15.4 3.7 4.8-7.7-3.7-17.1-11.4-12.6z"/></svg>